<?xml version="1.0" standalone="no"?>
<!DOCTYPE svg PUBLIC "-//W3C//DTD SVG 20010904//EN"
 "http://www.w3.org/TR/2001/REC-SVG-20010904/DTD/svg10.dtd">
<svg version="1.0" xmlns="http://www.w3.org/2000/svg"
 width="74.000000pt" height="74.000000pt" viewBox="0 0 74.000000 74.000000"
 preserveAspectRatio="xMidYMid meet">
<metadata>
Created by potrace 1.14, written by Peter Selinger 2001-2017
</metadata>
<g transform="translate(0.000000,74.000000) scale(0.100000,-0.100000)"
fill="#000000" stroke="none">
<path d="M377 724 c-3 -3 -28 -7 -55 -9 -27 -2 -71 -14 -98 -26 -51 -24 -147
-106 -139 -119 3 -5 -1 -10 -8 -13 -19 -7 -59 -107 -44 -107 8 0 7 -3 -2 -9
-8 -5 -12 -18 -8 -30 3 -12 2 -23 -2 -26 -16 -9 23 -175 41 -175 4 0 7 -3 6
-8 -2 -4 10 -25 25 -47 15 -22 27 -35 27 -30 0 6 5 2 11 -8 6 -9 15 -15 20
-11 5 3 8 0 7 -7 -4 -18 98 -68 144 -71 21 -2 38 -6 38 -9 0 -6 13 -5 85 6 37
5 114 33 125 45 3 3 16 11 30 18 27 14 92 91 90 106 -1 5 3 12 10 16 6 4 12
13 13 21 2 8 6 19 10 25 4 7 8 28 9 48 2 20 5 36 8 36 3 0 6 9 6 20 0 11 -3
20 -6 20 -3 0 -5 14 -4 31 0 17 -5 47 -11 66 -18 52 -68 133 -82 133 -7 0 -13
6 -13 13 0 10 -78 66 -100 72 -3 1 -16 5 -30 9 -14 4 -36 8 -50 10 -14 1 -31
5 -37 9 -5 3 -13 4 -16 1z m8 -45 c105 -6 171 -43 244 -136 18 -24 30 -43 26
-43 -4 0 -1 -7 6 -17 10 -11 14 -45 14 -107 0 -80 -3 -98 -27 -144 -32 -62
-87 -118 -140 -142 -21 -9 -35 -20 -30 -25 4 -5 2 -6 -4 -2 -5 3 -45 2 -87 -2
-42 -4 -77 -3 -77 1 0 4 -8 8 -19 8 -10 0 -39 11 -64 24 -25 14 -49 21 -53 18
-4 -4 -4 -2 -1 4 4 6 -6 22 -21 35 -72 61 -109 183 -85 282 7 32 10 64 6 70
-3 7 -3 9 2 5 5 -5 23 13 41 40 17 26 42 54 54 62 12 8 28 20 34 26 6 6 24 14
39 18 15 3 25 11 22 16 -3 5 6 7 19 4 14 -2 28 0 31 6 4 6 9 8 13 6 4 -2 30
-5 57 -7z"/>
<path d="M304 620 c-40 -9 -117 -62 -144 -99 -76 -107 -56 -264 44 -346 55
-45 107 -63 177 -60 132 4 237 109 244 242 6 108 -62 215 -161 254 -36 14
-118 18 -160 9z m182 -71 c57 -35 96 -106 96 -174 -2 -191 -223 -291 -358
-160 -183 178 45 469 262 334z"/>
<path d="M328 527 c-98 -24 -153 -153 -101 -235 37 -57 78 -81 141 -83 49 -2
85 14 121 51 61 64 58 161 -5 224 -20 20 -40 36 -45 36 -13 0 -16 1 -46 9 -16
4 -45 3 -65 -2z m117 -53 c32 -21 58 -89 50 -131 -3 -19 -20 -47 -36 -62 -96
-92 -258 10 -208 132 16 38 25 49 64 71 34 19 93 14 130 -10z"/>
<path d="M321 456 c-13 -7 -30 -24 -37 -37 -56 -101 74 -200 155 -118 81 81
-18 210 -118 155z"/>
</g>
</svg>
